<svg width="17" height="21" viewBox="0 0 17 21" fill="none" xmlns="http://www.w3.org/2000/svg">
<path d="M15.2539 5.03467H1.7453C1.49591 5.03467 1.28809 5.25549 1.28809 5.52047V19.0789C1.28809 20.1388 2.0986 21 3.09615 21H13.903C14.9006 21 15.7111 20.1388 15.7111 19.0789V5.52047C15.7111 5.25549 15.5032 5.03467 15.2539 5.03467ZM5.59004 17.0694C5.59004 17.4227 5.31987 17.7098 4.98735 17.7098C4.65483 17.7098 4.38466 17.4227 4.38466 17.0694V8.92112C4.38466 8.5678 4.65483 8.28074 4.98735 8.28074C5.31987 8.28074 5.59004 8.5678 5.59004 8.92112V17.0694ZM9.10227 17.0694C9.10227 17.4227 8.8321 17.7098 8.49958 17.7098C8.16706 17.7098 7.89689 17.4227 7.89689 17.0694V8.92112C7.89689 8.5678 8.16706 8.28074 8.49958 8.28074C8.8321 8.28074 9.10227 8.5678 9.10227 8.92112V17.0694ZM12.6145 17.0694C12.6145 17.4227 12.3443 17.7098 12.0118 17.7098C11.6793 17.7098 11.4091 17.4227 11.4091 17.0694V8.92112C11.4091 8.5678 11.6793 8.28074 12.0118 8.28074C12.3443 8.28074 12.6145 8.5678 12.6145 8.92112V17.0694Z" fill="black"/>
<path d="M16.1064 1.83281H12.0954L11.1394 0.41956C10.9731 0.154575 10.6822 0 10.3704 0H6.62958C6.31785 0 6.04768 0.154575 5.86064 0.41956L4.90465 1.83281H0.893643C0.394866 1.83281 0 2.25237 0 2.78234C0 3.31231 0.394866 3.73187 0.893643 3.73187H16.1064C16.6051 3.73187 17 3.31231 17 2.78234C17 2.25237 16.6051 1.83281 16.1064 1.83281Z" fill="black"/>
</svg>
